<?xml version="1.0" encoding="iso-8859-1"?>

<!DOCTYPE svg PUBLIC "-//W3C//DTD SVG 1.1//EN" "http://www.w3.org/Graphics/SVG/1.1/DTD/svg11.dtd">
<!-- Uploaded to: SVG Repo, www.svgrepo.com, Generator: SVG Repo Mixer Tools -->
<svg height="800px" width="800px" version="1.1" id="_x36_" xmlns="http://www.w3.org/2000/svg" xmlns:xlink="http://www.w3.org/1999/xlink" 
	 viewBox="0 0 512 512"  xml:space="preserve">
<g>
	<g>
		<path style="fill:#E13C72;" d="M398.231,142.224c0,78.545-63.68,142.218-142.231,142.218
			c-78.545,0-142.221-63.673-142.221-142.218S177.455,0,256,0C334.551,0,398.231,63.68,398.231,142.224z"/>
		<path style="fill:#E94E7D;" d="M398.231,369.77C398.231,448.321,334.551,512,256,512c-78.545,0-142.221-63.679-142.221-142.23
			c0-78.539,63.676-142.212,142.221-142.212C334.551,227.558,398.231,291.231,398.231,369.77z"/>
		<path style="fill:#E13C72;" d="M142.221,113.77c78.548,0,142.221,63.673,142.221,142.224c0,78.545-63.673,142.224-142.221,142.224
			C63.68,398.219,0,334.539,0,255.994C0,177.443,63.68,113.77,142.221,113.77z"/>
		<path style="fill:#E94E7D;" d="M369.769,113.77C448.32,113.77,512,177.443,512,255.994c0,78.545-63.68,142.224-142.231,142.224
			c-78.538,0-142.211-63.68-142.211-142.224C227.558,177.443,291.231,113.77,369.769,113.77z"/>
		<path style="fill:#D33F79;" d="M410.103,392.397c2.263-13.154,2.609-26.852,0.904-40.808
			c-9.488-77.404-79.462-132.57-156.763-123.987c0.596,0,1.154-0.045,1.756-0.045c78.564,0,142.205,63.699,142.205,142.205
			c0,8.878-0.801,17.564-2.359,26L410.103,392.397z"/>
		<path style="fill:#C6376F;" d="M395.744,116.116c-8.378-1.551-17.064-2.353-25.949-2.353
			c-78.564,0-142.256,63.692-142.256,142.257c0,0.545,0.051,1.147,0.051,1.75c-8.539-77.302,46.635-147.327,123.981-156.808
			c13.961-1.705,27.66-1.359,40.808,0.904L395.744,116.116z"/>
		<path style="fill:#C6376F;" d="M116.15,116.225c-1.554,8.423-2.356,17.115-2.356,26c0,78.551,63.642,142.205,142.205,142.205
			c0.603,0,1.16,0,1.757,0c-77.301,8.532-147.275-46.635-156.763-124.039c-1.708-13.955-1.355-27.654,0.901-40.808L116.15,116.225z"
			/>
		<path style="fill:#D33F79;" d="M119.618,410.116c13.155,2.263,26.85,2.609,40.805,0.903
			c77.352-9.487,132.525-79.512,123.987-156.763c0,0.551,0.051,1.154,0.051,1.763c0,78.499-63.692,142.205-142.256,142.205
			c-8.891,0-17.568-0.807-25.949-2.358L119.618,410.116z"/>
	</g>
	<path style="fill:#F4C09B;" d="M329.622,256.007c0,40.654-32.967,73.616-73.622,73.616c-40.66,0-73.622-32.962-73.622-73.616
		c0-40.66,32.962-73.628,73.622-73.628C296.654,182.378,329.622,215.346,329.622,256.007z"/>
	<path style="fill:#E8AE74;" d="M303.673,199.962c10.942,12.847,17.577,29.475,17.577,47.68c0,40.654-32.962,73.615-73.615,73.615
		c-18.199,0-34.834-6.634-47.68-17.577c13.506,15.852,33.583,25.943,56.045,25.943c40.654,0,73.622-32.962,73.622-73.616
		C329.622,233.545,319.532,213.468,303.673,199.962z"/>
</g>
</svg>